<svg xmlns="http://www.w3.org/2000/svg" version="1.1" xmlns:xlink="http://www.w3.org/1999/xlink" xmlns:svgjs="http://svgjs.dev/svgjs" width="1500" height="1500" viewBox="0 0 1500 1500"><rect width="1500" height="1500" fill="#ffffff"></rect><g transform="matrix(0.6666666666666666,0,0,0.6666666666666666,250,250)"><svg viewBox="0 0 280 280" data-background-color="#ece6d6" preserveAspectRatio="xMidYMid meet" height="1500" width="1500" xmlns="http://www.w3.org/2000/svg" xmlns:xlink="http://www.w3.org/1999/xlink"><g id="tight-bounds" transform="matrix(1,0,0,1,0,0)"><svg viewBox="0 0 280 280" height="280" width="280"><g><svg viewBox="0 0 280 280" height="280" width="280"><g><svg viewBox="0 0 280 280" height="280" width="280"><g id="textblocktransform"><svg viewBox="0 0 280 280" height="280" width="280" id="textblock"><g><svg viewBox="0 0 280 280" height="280" width="280"><g transform="matrix(1,0,0,1,57.50420886156945,57.50420886156945)"><svg viewBox="0 0 164.9915822768611 164.9915822768611" height="164.9915822768611" width="164.9915822768611"><g id="icon-0"><circle r="82" cx="82.49579113843055" cy="82.49579113843055" fill="#000000" data-fill-palette-color="accent"></circle><svg xmlns="http://www.w3.org/2000/svg" xmlns:xlink="http://www.w3.org/1999/xlink" version="1.1" x="24.748737341529164" y="24.74873734152917" viewBox="5 5 90.3 90.1" style="enable-background:new 0 0 100 100;" xml:space="preserve" height="115.49410759380275" width="115.49410759380275" class="icon-jxe-0" data-fill-palette-color="quaternary" id="jxe-0"><g fill="#ece6d6" data-fill-palette-color="quaternary"><path d="M50 31.5C39.8 31.5 31.5 39.8 31.5 50S39.8 68.5 50 68.5 68.5 60.2 68.5 50 60.2 31.5 50 31.5" fill="#ffffff" data-fill-palette-color="quaternary"></path><path d="M90.6 40H86.2C85.4 37 84.2 34.1 82.7 31.4L85.8 28.3C87.5 26.6 87.5 23.8 85.8 22.1L77.8 14.1C76.1 12.4 73.3 12.4 71.6 14.1L68.5 17.2C65.8 15.7 63 14.5 59.9 13.7V9.4C60 7 58 5 55.6 5H44.4C42 5 40 7 40 9.4V13.8C37 14.6 34.1 15.8 31.4 17.3L28.3 14.2C26.6 12.5 23.8 12.5 22.1 14.2L14.1 22.2C12.4 23.9 12.4 26.7 14.1 28.4L17.2 31.5C15.7 34.2 14.5 37 13.7 40.1H9.4C7 40 5 42 5 44.4V55.7C5 58.1 7 60 9.4 60H13.8C14.6 63 15.8 65.9 17.3 68.6L14.2 71.7C12.5 73.4 12.5 76.2 14.2 77.9L22.2 85.9C23.9 87.6 26.7 87.6 28.4 85.9L31.5 82.8C34.2 84.3 37 85.5 40.1 86.3V90.7C40.1 93.1 42.1 95.1 44.5 95.1H55.8C58.2 95.1 60.2 93.1 60.2 90.7V86.3C63.2 85.5 66.1 84.3 68.8 82.8L71.9 85.9C73.6 87.6 76.4 87.6 78.1 85.9L86.1 77.9C87.8 76.2 87.8 73.4 86.1 71.7L83 68.6C84.5 65.9 85.7 63.1 86.5 60H90.9C93.3 60 95.3 58 95.3 55.6V44.4C95 42 93 40 90.6 40M50 71.5C38.1 71.5 28.5 61.9 28.5 50S38.1 28.5 50 28.5 71.5 38.2 71.5 50 61.9 71.5 50 71.5" fill="#ffffff" data-fill-palette-color="quaternary"></path></g></svg></g></svg></g><g id="text-0"><path d="M34.317 97.869v0c-0.796 2.246-1.994 3.992-3.596 5.236-1.608 1.242-3.577 1.93-5.909 2.064-2.332 0.133-4.99-0.328-7.975-1.386v0c-2.984-1.057-5.366-2.381-7.144-3.971-1.779-1.59-2.927-3.383-3.445-5.378-0.511-1.993-0.369-4.113 0.427-6.359v0c0.787-2.221 1.961-3.917 3.522-5.09 1.566-1.164 3.43-1.839 5.595-2.025v0l0.642 3.16c-1.57 0.045-2.964 0.472-4.181 1.28-1.215 0.801-2.117 2.032-2.705 3.693v0c-0.814 2.297-0.616 4.387 0.593 6.269 1.218 1.878 3.192 3.301 5.922 4.269v0l3.99 1.413c2.73 0.967 5.108 1.087 7.135 0.358 2.023-0.737 3.441-2.254 4.256-4.551v0c0.606-1.712 0.674-3.296 0.201-4.752-0.476-1.465-1.345-2.722-2.607-3.771v0l2.513-1.999c1.565 1.507 2.615 3.251 3.153 5.231 0.529 1.985 0.399 4.088-0.387 6.309z" fill="#000000" data-fill-palette-color="primary"></path><path d="M45.941 74.192l-1.852 2.671-24.697-17.127 1.853-2.671 10.276 7.127 0.092-0.133c-0.684-1.099-1.05-2.236-1.097-3.411-0.046-1.166 0.379-2.395 1.275-3.687v0c1.235-1.781 2.784-2.789 4.648-3.024 1.862-0.245 3.839 0.358 5.931 1.808v0l11.05 7.663-1.853 2.671-10.584-7.34c-1.531-1.062-2.917-1.534-4.156-1.416-1.231 0.116-2.294 0.82-3.191 2.113v0c-0.492 0.71-0.845 1.468-1.058 2.272-0.217 0.811-0.22 1.585-0.009 2.323 0.217 0.742 0.691 1.367 1.423 1.875v0z" fill="#000000" data-fill-palette-color="primary"></path><path d="M68.679 49.972v0c-1.713 1.403-3.407 2.057-5.081 1.963-1.673-0.104-3.128-0.911-4.365-2.42v0c-0.838-1.024-1.296-2.093-1.372-3.209-0.072-1.11 0.252-2.266 0.971-3.465 0.714-1.195 1.857-2.437 3.428-3.725v0l3.204-2.624-1.315-1.606c-0.945-1.154-1.98-1.777-3.103-1.87-1.123-0.092-2.335 0.394-3.634 1.459v0c-0.966 0.791-1.604 1.68-1.913 2.667-0.309 0.986-0.384 2.029-0.225 3.129v0l-2.666-0.186c-0.263-1.216-0.17-2.535 0.279-3.959 0.448-1.414 1.405-2.722 2.872-3.923v0c1.948-1.596 3.866-2.364 5.756-2.306 1.888 0.068 3.536 0.961 4.943 2.679v0l7.309 8.922 1.856-1.521 1.803 2.202-1.418 1.161c-0.898 0.736-1.744 1.045-2.538 0.928-0.804-0.118-1.549-0.49-2.235-1.115v0l-0.186-0.162-0.156 0.128c0.474 1.261 0.508 2.485 0.102 3.673-0.411 1.192-1.183 2.252-2.316 3.18zM67.342 47.494v0c0.836-0.684 1.465-1.418 1.888-2.202 0.428-0.787 0.642-1.555 0.64-2.303-0.002-0.749-0.228-1.397-0.678-1.946v0l-2.188-2.671-3.329 2.727c-1.426 1.168-2.3 2.237-2.621 3.208-0.331 0.97-0.172 1.851 0.478 2.645v0l0.539 0.658c0.654 0.799 1.456 1.176 2.406 1.131 0.944-0.04 1.899-0.456 2.865-1.247z" fill="#000000" data-fill-palette-color="primary"></path><path d="M96.941 31.754l-3.642 1.794c-0.993 0.489-1.899 0.574-2.719 0.256-0.828-0.322-1.463-0.931-1.905-1.828v0l-6.479-13.153-3.098 1.526-1.257-2.553 1.753-0.863c0.63-0.31 0.997-0.649 1.102-1.017 0.105-0.368 0.002-0.866-0.308-1.496v0l-1.727-3.507 2.625-1.293 2.568 5.214 4.124-2.031 1.258 2.552-4.124 2.032 6.748 13.698 3.824-1.884z" fill="#000000" data-fill-palette-color="primary"></path><path d="M119.236 24.801l-3.927 1.036c-1.071 0.282-1.976 0.186-2.715-0.29-0.748-0.48-1.249-1.203-1.504-2.169v0l-3.739-14.178-3.339 0.881-0.725-2.751 1.89-0.499c0.679-0.179 1.106-0.438 1.282-0.778 0.176-0.34 0.174-0.849-0.005-1.527v0l-0.997-3.78 2.83-0.746 1.482 5.62 4.445-1.172 0.726 2.751-4.446 1.173 3.894 14.765 4.122-1.087z" fill="#000000" data-fill-palette-color="primary"></path><path d="M141.394 23.275v0c-1.896 0.057-3.559-0.345-4.99-1.207-1.438-0.869-2.572-2.107-3.404-3.717-0.832-1.616-1.281-3.534-1.348-5.754v0c-0.067-2.22 0.267-4.162 1-5.825 0.734-1.656 1.792-2.961 3.174-3.915 1.376-0.946 3.013-1.448 4.909-1.505v0c1.869-0.056 3.495 0.334 4.878 1.17 1.376 0.843 2.452 2.023 3.226 3.54 0.782 1.523 1.203 3.273 1.262 5.25v0l0.047 1.539-15.061 0.453 0.029 0.982c0.054 1.808 0.646 3.3 1.776 4.475 1.129 1.168 2.669 1.723 4.619 1.664v0c1.329-0.04 2.477-0.385 3.444-1.036 0.973-0.651 1.712-1.568 2.217-2.751v0l2.368 1.6c-0.639 1.424-1.661 2.606-3.064 3.547-1.41 0.934-3.104 1.431-5.082 1.49zM135.005 10.591l0.009 0.284 11.569-0.348-0.014-0.456c-0.037-1.242-0.299-2.314-0.786-3.218-0.493-0.91-1.166-1.609-2.018-2.097-0.852-0.488-1.835-0.715-2.948-0.681v0c-1.161 0.035-2.188 0.336-3.083 0.903-0.888 0.567-1.574 1.341-2.058 2.321-0.484 0.974-0.708 2.071-0.671 3.292z" fill="#000000" data-fill-palette-color="primary"></path><path d="M167.609 25.23l-3.184-0.653 4.21-20.533 3.185 0.653-0.775 3.779 0.198 0.041c0.374-0.613 0.87-1.152 1.489-1.617 0.621-0.472 1.368-0.805 2.241-0.998 0.867-0.194 1.859-0.177 2.977 0.052v0l1.23 0.252-0.653 3.184-1.875-0.384c-1.137-0.233-2.147-0.282-3.029-0.146-0.889 0.135-1.603 0.409-2.143 0.822-0.541 0.42-0.879 0.96-1.015 1.621v0z" fill="#000000" data-fill-palette-color="primary"></path><path d="M203.075 38.744l-15.709-7.26 11.895-25.738 15.709 7.261-1.262 2.73-12.611-5.829-3.989 8.631 11.876 5.489-1.258 2.721-11.876-5.489-4.125 8.925 12.611 5.829z" fill="#000000" data-fill-palette-color="primary"></path><path d="M218.345 51.177v0c-1.677-1.446-2.612-3.002-2.807-4.668-0.185-1.666 0.359-3.238 1.634-4.716v0c0.864-1.002 1.839-1.636 2.925-1.903 1.082-0.262 2.275-0.141 3.581 0.361 1.3 0.498 2.72 1.41 4.258 2.737v0l3.136 2.705 1.356-1.572c0.974-1.13 1.411-2.256 1.309-3.377-0.102-1.122-0.789-2.232-2.062-3.33v0c-0.946-0.816-1.931-1.291-2.955-1.427-1.025-0.135-2.065-0.03-3.122 0.317v0l-0.275-2.658c1.153-0.468 2.468-0.603 3.948-0.406 1.47 0.198 2.923 0.916 4.359 2.156v0c1.907 1.645 2.994 3.403 3.261 5.273 0.258 1.872-0.339 3.648-1.79 5.33v0l-7.533 8.733 1.817 1.568-1.859 2.155-1.388-1.198c-0.879-0.758-1.329-1.539-1.35-2.341-0.022-0.812 0.216-1.61 0.714-2.393v0l0.128-0.211-0.153-0.132c-1.161 0.684-2.361 0.928-3.601 0.732-1.245-0.2-2.422-0.779-3.531-1.735zM220.557 49.434v0c0.818 0.706 1.649 1.199 2.493 1.482 0.849 0.287 1.642 0.365 2.38 0.233 0.737-0.131 1.337-0.465 1.8-1.001v0l2.255-2.615-3.259-2.811c-1.395-1.204-2.599-1.881-3.61-2.031-1.012-0.16-1.853 0.149-2.524 0.926v0l-0.555 0.644c-0.675 0.782-0.908 1.637-0.701 2.564 0.202 0.923 0.776 1.793 1.721 2.609z" fill="#000000" data-fill-palette-color="primary"></path><path d="M239.074 74.184v0c-1.104-1.575-1.734-3.121-1.89-4.636-0.151-1.51 0.011-3.013 0.488-4.509v0l2.865 0.823c-0.359 1.241-0.481 2.436-0.369 3.585 0.109 1.144 0.545 2.26 1.309 3.349v0c0.791 1.128 1.652 1.839 2.584 2.134 0.928 0.289 1.837 0.122 2.727-0.503v0c0.663-0.465 1.087-1.084 1.272-1.855 0.184-0.772-0.041-1.781-0.675-3.027v0l-0.754-1.499c-0.578-1.153-0.978-2.278-1.203-3.374-0.228-1.102-0.172-2.126 0.169-3.075 0.347-0.952 1.051-1.8 2.112-2.544v0c1.708-1.197 3.386-1.508 5.035-0.932 1.647 0.585 3.084 1.754 4.313 3.506v0c0.651 0.929 1.12 1.833 1.406 2.712 0.283 0.874 0.421 1.741 0.415 2.603-0.008 0.871-0.136 1.74-0.385 2.607v0l-2.83-0.65c0.267-0.748 0.361-1.638 0.28-2.67-0.084-1.037-0.514-2.109-1.289-3.214v0c-0.763-1.089-1.584-1.754-2.463-1.996-0.878-0.242-1.729-0.074-2.553 0.503v0c-0.818 0.574-1.223 1.278-1.214 2.113 0.008 0.835 0.295 1.85 0.86 3.045v0l0.731 1.466c1.049 2.109 1.452 3.847 1.207 5.214-0.255 1.366-1.034 2.506-2.339 3.42v0c-1.111 0.779-2.243 1.193-3.395 1.243-1.162 0.048-2.292-0.253-3.39-0.901-1.102-0.654-2.11-1.633-3.024-2.938z" fill="#000000" data-fill-palette-color="primary"></path><path d="M252.412 100.684v0c-0.667-1.776-0.823-3.48-0.47-5.113 0.357-1.641 1.163-3.115 2.417-4.423 1.261-1.31 2.93-2.355 5.01-3.135v0c2.079-0.781 4.024-1.093 5.835-0.936 1.805 0.159 3.382 0.739 4.731 1.739 1.34 0.997 2.344 2.383 3.011 4.159v0c0.657 1.751 0.814 3.415 0.468 4.994-0.353 1.575-1.122 2.974-2.307 4.197-1.189 1.232-2.709 2.196-4.56 2.892v0l-1.441 0.54-5.296-14.106-0.92 0.345c-1.694 0.636-2.914 1.678-3.661 3.127-0.741 1.446-0.768 3.083-0.082 4.909v0c0.467 1.245 1.165 2.22 2.093 2.924 0.93 0.711 2.037 1.114 3.32 1.209v0l-0.749 2.758c-1.554-0.145-3.003-0.729-4.347-1.753-1.34-1.033-2.357-2.475-3.052-4.327zM262.35 90.538l-0.265 0.1 4.068 10.836 0.427-0.16c1.163-0.437 2.093-1.031 2.791-1.784 0.702-0.761 1.146-1.624 1.333-2.588 0.186-0.964 0.083-1.967-0.309-3.01v0c-0.408-1.087-1.025-1.962-1.851-2.626-0.824-0.657-1.777-1.056-2.861-1.197-1.078-0.143-2.189 0-3.333 0.429z" fill="#000000" data-fill-palette-color="primary"></path><path d="M11.763 140.364c0-1.902 1.542-3.444 3.444-3.444 1.902 0 3.444 1.542 3.444 3.444 0 1.902-1.542 3.444-3.444 3.444-1.902 0-3.444-1.542-3.444-3.444z" fill="#000000" data-fill-palette-color="primary"></path><path d="M266.945 140.364c0-1.902 1.542-3.444 3.444-3.444 1.902 0 3.444 1.542 3.444 3.444 0 1.902-1.542 3.444-3.444 3.444-1.902 0-3.444-1.542-3.444-3.444z" fill="#000000" data-fill-palette-color="primary"></path></g><g id="text-1"><path d="M13.384 191.208v0c-0.855-2.376-1.043-4.611-0.563-6.707 0.482-2.089 1.633-3.974 3.453-5.655 1.822-1.675 4.315-3.081 7.479-4.22v0c3.157-1.136 6-1.65 8.528-1.542 2.531 0.115 4.673 0.815 6.427 2.099 1.762 1.288 3.071 3.12 3.926 5.496v0c0.846 2.35 1.022 4.533 0.527 6.548-0.497 2.008-1.573 3.813-3.228 5.413v0l-2.649-2.157c1.257-1.091 2.115-2.376 2.574-3.854 0.458-1.478 0.371-3.097-0.263-4.856v0c-0.873-2.426-2.439-4.005-4.696-4.734-2.264-0.728-4.841-0.572-7.731 0.468v0l-4.211 1.516c-2.89 1.04-4.921 2.543-6.094 4.508-1.166 1.962-1.313 4.157-0.439 6.583v0c0.652 1.81 1.664 3.157 3.036 4.04 1.364 0.879 2.92 1.324 4.667 1.334v0l-0.728 3.329c-2.289-0.18-4.319-0.906-6.09-2.177-1.771-1.271-3.079-3.082-3.925-5.432z" fill="#000000" data-fill-palette-color="primary"></path><path d="M28.585 219.348l-1.982-2.827 26.091-18.297 1.982 2.828-10.861 7.616 0.099 0.141c1.344-0.283 2.607-0.233 3.791 0.149 1.178 0.386 2.243 1.259 3.197 2.619v0c1.322 1.885 1.759 3.796 1.312 5.734-0.443 1.943-1.77 3.69-3.981 5.24v0l-11.665 8.18-1.977-2.819 11.176-7.837c1.619-1.136 2.597-2.34 2.932-3.614 0.339-1.268 0.03-2.585-0.927-3.951v0c-0.527-0.752-1.153-1.38-1.879-1.885-0.72-0.509-1.489-0.795-2.307-0.856-0.809-0.06-1.603 0.184-2.382 0.73v0z" fill="#000000" data-fill-palette-color="primary"></path><path d="M55.029 248.725v0c-1.832-1.482-2.874-3.102-3.127-4.861-0.262-1.758 0.256-3.44 1.555-5.046v0c0.887-1.097 1.9-1.802 3.039-2.114 1.142-0.317 2.411-0.233 3.806 0.253 1.401 0.49 2.938 1.413 4.613 2.768v0l3.409 2.757 1.382-1.708c0.993-1.228 1.418-2.435 1.273-3.62-0.145-1.194-0.908-2.35-2.288-3.466v0c-1.029-0.832-2.091-1.301-3.187-1.406-1.092-0.11-2.19 0.035-3.295 0.435v0l-0.383-2.811c1.211-0.531 2.6-0.719 4.167-0.563 1.568 0.166 3.134 0.881 4.698 2.147v0c2.073 1.677 3.281 3.501 3.623 5.471 0.338 1.975-0.233 3.879-1.715 5.71v0l-7.687 9.503 1.976 1.598-1.898 2.346-1.503-1.216c-0.96-0.777-1.464-1.593-1.512-2.447-0.051-0.849 0.176-1.699 0.682-2.549v0l0.127-0.222-0.173-0.14c-1.206 0.761-2.471 1.058-3.794 0.89-1.323-0.167-2.586-0.737-3.788-1.709zM57.303 246.8v0c0.892 0.722 1.792 1.22 2.699 1.493 0.902 0.27 1.745 0.322 2.53 0.158 0.775-0.163 1.398-0.536 1.869-1.119v0l2.299-2.842-3.543-2.866c-1.522-1.231-2.82-1.912-3.895-2.044-1.075-0.131-1.954 0.226-2.638 1.071v0l-0.573 0.708c-0.684 0.845-0.904 1.756-0.661 2.734 0.247 0.972 0.884 1.875 1.913 2.707z" fill="#000000" data-fill-palette-color="primary"></path><path d="M88.278 268.724l-3.868-1.886c-1.056-0.515-1.718-1.221-1.987-2.118-0.263-0.894-0.162-1.817 0.303-2.77v0l6.813-13.971-3.295-1.606 1.322-2.713 1.857 0.906c0.674 0.328 1.198 0.415 1.574 0.26 0.379-0.146 0.733-0.555 1.061-1.229v0l1.811-3.713 2.785 1.358-2.698 5.534 4.369 2.13-1.323 2.712-4.369-2.13-7.092 14.545 4.06 1.979z" fill="#000000" data-fill-palette-color="primary"></path><path d="M114.152 276.896l-4.162-1.096c-1.136-0.299-1.923-0.863-2.361-1.691-0.432-0.826-0.513-1.751-0.242-2.776v0l3.959-15.03-3.545-0.934 0.769-2.918 1.998 0.526c0.725 0.191 1.256 0.174 1.594-0.051 0.343-0.217 0.61-0.687 0.802-1.412v0l1.052-3.995 2.996 0.789-1.568 5.954 4.7 1.238-0.768 2.918-4.701-1.238-4.122 15.647 4.368 1.151z" fill="#000000" data-fill-palette-color="primary"></path><path d="M140.592 279.993v0c-2.004-0.064-3.736-0.599-5.197-1.604-1.467-1.013-2.588-2.399-3.363-4.16-0.775-1.76-1.125-3.818-1.05-6.173v0c0.075-2.355 0.555-4.386 1.441-6.093 0.885-1.708 2.092-3.02 3.62-3.938 1.522-0.911 3.284-1.334 5.289-1.27v0c1.984 0.063 3.676 0.583 5.076 1.56 1.408 0.977 2.473 2.298 3.197 3.962 0.724 1.658 1.053 3.532 0.986 5.624v0l-0.052 1.639-15.971-0.508-0.033 1.032c-0.061 1.923 0.468 3.541 1.588 4.853 1.12 1.312 2.716 2.001 4.787 2.067v0c1.403 0.045 2.639-0.244 3.706-0.865 1.067-0.628 1.907-1.55 2.519-2.766v0l2.403 1.839c-0.769 1.468-1.928 2.654-3.476 3.557-1.548 0.896-3.372 1.311-5.47 1.244zM134.66 266.147l-0.01 0.304 12.267 0.391 0.015-0.476c0.042-1.322-0.164-2.477-0.619-3.464-0.461-0.994-1.125-1.775-1.992-2.343-0.873-0.575-1.9-0.881-3.081-0.919v0c-1.228-0.039-2.334 0.213-3.317 0.755-0.976 0.543-1.754 1.315-2.333 2.317-0.579 1.001-0.889 2.147-0.93 3.435z" fill="#000000" data-fill-palette-color="primary"></path><path d="M171.532 276.722l-3.385 0.681-4.384-21.78 3.385-0.681 0.807 4.01 0.209-0.042c0.11-0.752 0.372-1.487 0.786-2.203 0.415-0.71 1.004-1.342 1.767-1.895 0.771-0.548 1.746-0.94 2.923-1.177v0l1.311-0.264 0.679 3.375-1.985 0.4c-1.204 0.242-2.211 0.614-3.019 1.114-0.808 0.5-1.39 1.065-1.746 1.694-0.357 0.623-0.464 1.288-0.321 1.996v0z" fill="#000000" data-fill-palette-color="primary"></path><path d="M212.125 261.623l-16.698 7.605-12.457-27.351 16.698-7.605 1.322 2.903-13.399 6.102 4.176 9.17 12.616-5.746 1.318 2.893-12.616 5.746 4.319 9.483 13.399-6.103z" fill="#000000" data-fill-palette-color="primary"></path><path d="M232.57 247.055v0c-1.791 1.531-3.574 2.26-5.35 2.188-1.776-0.063-3.335-0.879-4.677-2.449v0c-0.917-1.073-1.425-2.197-1.524-3.373-0.104-1.181 0.211-2.413 0.943-3.697 0.738-1.288 1.925-2.631 3.562-4.03v0l3.333-2.849-1.427-1.67c-1.026-1.201-2.135-1.838-3.327-1.913-1.201-0.075-2.476 0.464-3.825 1.618v0c-1.006 0.86-1.66 1.819-1.964 2.877-0.308 1.053-0.366 2.16-0.174 3.319v0l-2.833-0.136c-0.301-1.288-0.232-2.688 0.207-4.2 0.449-1.511 1.438-2.921 2.967-4.227v0c2.027-1.732 4.04-2.587 6.04-2.565 2.004 0.028 3.771 0.937 5.302 2.728v0l7.941 9.291 1.932-1.651 1.961 2.294-1.471 1.257c-0.939 0.803-1.833 1.149-2.681 1.039-0.844-0.104-1.638-0.483-2.382-1.135v0l-0.195-0.166-0.169 0.145c0.528 1.325 0.589 2.622 0.183 3.893-0.406 1.271-1.197 2.408-2.372 3.412zM231.092 244.469v0c0.872-0.746 1.526-1.539 1.961-2.382 0.43-0.838 0.635-1.657 0.616-2.458-0.019-0.792-0.272-1.472-0.759-2.042v0l-2.375-2.779-3.464 2.961c-1.488 1.272-2.395 2.424-2.72 3.456-0.325 1.033-0.135 1.962 0.571 2.789v0l0.592 0.693c0.706 0.826 1.562 1.209 2.568 1.149 1.001-0.065 2.004-0.528 3.01-1.387z" fill="#000000" data-fill-palette-color="primary"></path><path d="M257.175 220.04v0c-1.179 1.663-2.499 2.841-3.96 3.535-1.457 0.688-3.013 1.062-4.668 1.121v0l-0.201-3.147c1.364-0.092 2.601-0.394 3.709-0.907 1.107-0.522 2.067-1.356 2.879-2.502v0c0.847-1.195 1.249-2.309 1.204-3.342-0.04-1.029-0.527-1.876-1.463-2.54v0c-0.705-0.5-1.475-0.703-2.312-0.609-0.842 0.09-1.767 0.671-2.776 1.743v0l-1.231 1.299c-0.946 0.984-1.927 1.783-2.941 2.396-1.018 0.619-2.063 0.925-3.134 0.918-1.075-0.001-2.174-0.4-3.298-1.197v0c-1.801-1.277-2.704-2.845-2.71-4.703-0.005-1.849 0.649-3.698 1.962-5.549v0c0.695-0.98 1.43-1.771 2.204-2.372 0.776-0.592 1.596-1.036 2.46-1.334 0.863-0.307 1.774-0.488 2.733-0.544v0l0.367 3.053c-0.843-0.002-1.768 0.223-2.776 0.676-1.004 0.447-1.922 1.257-2.754 2.429v0c-0.812 1.145-1.185 2.201-1.117 3.168 0.077 0.965 0.548 1.754 1.412 2.367v0c0.87 0.617 1.72 0.773 2.549 0.467 0.833-0.311 1.742-0.962 2.726-1.952v0l1.211-1.252c1.732-1.8 3.324-2.819 4.774-3.056 1.457-0.233 2.873 0.138 4.25 1.114v0c1.173 0.832 1.989 1.816 2.449 2.954 0.46 1.137 0.561 2.372 0.303 3.703-0.258 1.332-0.875 2.686-1.851 4.063z" fill="#000000" data-fill-palette-color="primary"></path><path d="M273.278 188.655v0c-0.716 1.873-1.788 3.335-3.217 4.386-1.437 1.055-3.114 1.66-5.031 1.816-1.917 0.156-3.976-0.187-6.176-1.029v0c-2.201-0.842-3.963-1.96-5.287-3.355-1.324-1.395-2.169-2.965-2.535-4.71-0.362-1.736-0.186-3.54 0.53-5.413v0c0.709-1.854 1.754-3.283 3.136-4.286 1.384-1.01 2.98-1.585 4.789-1.724 1.803-0.142 3.682 0.161 5.637 0.908v0l1.532 0.586-5.707 14.925 0.965 0.369c1.797 0.687 3.499 0.716 5.105 0.088 1.606-0.629 2.78-1.911 3.52-3.847v0c0.502-1.312 0.633-2.573 0.395-3.784-0.244-1.214-0.841-2.309-1.789-3.286v0l2.524-1.669c1.135 1.208 1.876 2.691 2.223 4.449 0.34 1.756 0.135 3.615-0.614 5.576zM258.253 189.728l0.284 0.109 4.384-11.463-0.445-0.17c-1.236-0.473-2.395-0.656-3.476-0.549-1.09 0.111-2.046 0.483-2.866 1.116-0.829 0.637-1.455 1.507-1.876 2.61v0c-0.439 1.148-0.563 2.275-0.372 3.382 0.194 1.1 0.669 2.088 1.426 2.962 0.757 0.875 1.737 1.543 2.941 2.003z" fill="#000000" data-fill-palette-color="primary"></path></g></svg></g></svg></g></svg></g></svg></g><defs></defs></svg><rect width="280" height="280" fill="none" stroke="none" visibility="hidden"></rect></g></svg></g></svg>